<?xml version="1.0" encoding="utf-8"?>
<!-- Generator: Adobe Illustrator 25.3.1, SVG Export Plug-In . SVG Version: 6.00 Build 0)  -->
<svg version="1.1" id="分離模式" xmlns="http://www.w3.org/2000/svg" xmlns:xlink="http://www.w3.org/1999/xlink" x="0px"
	 y="0px" viewBox="0 0 46.6 29" style="enable-background:new 0 0 46.6 29;" xml:space="preserve">
<style type="text/css">
	.st0{fill:#40151A;}
	.st1{fill:#6D6C6C;}
	.st2{fill:#FFEF00;}
	.st3{fill:#5E5E5E;}
	.st4{fill:#4D4D4D;}
	.st5{fill:#EC6C1F;}
	.st6{fill:#934010;}
	.st7{fill:#FFFFFF;}
	.st8{fill:#B2B2B2;}
	.st9{fill:#ED1C24;}
	.st10{fill:#EEB033;}
	.st11{fill:#FBB03B;}
	.st12{fill:#9E9F9F;}
	.st13{fill:#3D3A39;}
	.st14{clip-path:url(#SVGID_3_);}
</style>
<g>
	<g>
		<g>
			<g>
				<g>
					<polyline class="st0" points="38.3,13.4 38.3,13.4 38.3,13.4 38.3,13.4 					"/>
				</g>
			</g>
			<g>
				<g>
					<polyline class="st0" points="36.3,14 36.3,14 36.3,14 					"/>
				</g>
			</g>
			<g>
				<g>
					<path class="st1" d="M11.9,11.3l0.1-0.4c0-0.1,0-0.1-0.1-0.1s-0.1,0-0.1,0.1l-0.1,0.4c0,0.1,0,0.1,0.1,0.1
						C11.9,11.4,11.9,11.3,11.9,11.3z"/>
				</g>
			</g>
			<g>
				<g>
					<polygon class="st2" points="8.8,9.7 8.8,11 9,11.1 9,9.6 					"/>
				</g>
			</g>
			<g>
				<g>
					<g>
						<g>
							<path class="st3" d="M0.6,21.2c0,2,0.9,3.9,2.4,5.2c1.4,1.3,3.4,2.1,5.5,2.1s4.1-0.9,5.5-2.2c1.4-1.4,2.2-3.2,2.2-5.3
								c0-2-0.9-3.9-2.3-5.2c-0.3-0.3-0.6-0.5-0.9-0.7c-0.6-0.4-1.5-0.8-1.5-0.8c-1-0.4-2-0.6-3.1-0.6c-2.1,0-4.1,0.9-5.5,2.2
								C1.4,17.3,0.5,19.1,0.6,21.2z M4.2,16.1l2.5,3.4c-0.2,0.2-0.3,0.4-0.4,0.7L2,19c0.3-0.9,0.8-1.7,1.5-2.3
								C3.8,16.5,4,16.3,4.2,16.1z M7.9,18.8c-0.2,0-0.5,0.1-0.7,0.2l-2.5-3.3c0.9-0.5,1.9-0.9,3.1-1L7.9,18.8z M11.4,15.4
								c0.1,0,0.2,0.1,0.3,0.2L9.3,19c-0.2-0.1-0.4-0.2-0.7-0.2l-0.1-4.1c0.9,0,1.8,0.2,2.6,0.5l0,0C11.2,15.3,11.3,15.4,11.4,15.4
								L11.4,15.4z M14.6,18.8l-4.3,1.3c-0.1-0.3-0.3-0.5-0.5-0.7l2.4-3.5c0.1,0,0.1,0.1,0.2,0.1c0.2,0.2,0.4,0.3,0.6,0.5
								C13.7,17.2,14.2,17.9,14.6,18.8z M14.8,22.5l-4.4-1.2c0-0.1,0-0.2,0-0.4c0-0.1,0-0.1,0-0.2l4.3-1.3c0.1,0.5,0.2,1,0.2,1.5
								C15,21.5,15,22,14.8,22.5z M12.4,26.1l-2.6-3.5c0.2-0.2,0.3-0.4,0.4-0.6l4.4,1.2c-0.3,0.9-0.8,1.7-1.5,2.3
								C12.9,25.7,12.7,25.9,12.4,26.1z M8.6,23.2c0.2,0,0.4-0.1,0.6-0.2l2.6,3.5c-0.9,0.5-2,0.9-3.1,0.9L8.6,23.2z M8.3,22.5
								c-0.8,0-1.5-0.6-1.5-1.5c0-0.8,0.6-1.5,1.5-1.5c0.8,0,1.5,0.6,1.5,1.5C9.8,21.8,9.1,22.4,8.3,22.5z M4.9,26.5L7.4,23
								c0.1,0.1,0.3,0.1,0.6,0.2v4.2C6.9,27.4,5.8,27,4.9,26.5z M2.1,23.3L6.3,22c0.1,0.2,0.3,0.4,0.4,0.6l-2.4,3.5
								c-0.2-0.2-0.4-0.3-0.6-0.5C3,25,2.5,24.2,2.1,23.3z M1.9,22.7c-0.1-0.5-0.2-1-0.2-1.5s0.1-1,0.2-1.5l4.3,1.2
								c0,0.1,0,0.1,0,0.2s0,0.2,0,0.4L1.9,22.7z"/>
						</g>
					</g>
					<g>
						<g>
							<path class="st3" d="M8.3,20.1c0.5,0,0.9,0.4,0.9,0.9s-0.4,0.9-0.9,0.9S7.4,21.5,7.4,21C7.4,20.5,7.8,20.1,8.3,20.1z"/>
						</g>
					</g>
				</g>
				<g>
					<g>
						<g>
							<path d="M8.3,29c-2.2,0-4.2-0.8-5.8-2.2C0.9,25.3,0,23.4,0,21.2c0-2.1,0.9-4.1,2.4-5.6C4,14,6,13.2,8.2,13.2h0.1
								c1.1,0,2.2,0.2,3.2,0.6c0.1,0,1,0.4,1.6,0.8c0.4,0.2,0.7,0.5,1,0.8c1.6,1.5,2.5,3.4,2.5,5.6c0,2.1-0.8,4.1-2.4,5.6
								c-1.5,1.5-3.6,2.4-5.8,2.4H8.3z M8.4,14.2H8.2c-1.9,0-3.8,0.8-5.1,2.1C1.7,17.6,1,19.4,1,21.2s0.8,3.6,2.2,4.8
								c1.4,1.3,3.2,2,5.1,2h0.1c1.9,0,3.8-0.8,5.1-2.1c1.3-1.3,2.1-3,2-4.9c0-1.8-0.8-3.6-2.2-4.8c-0.3-0.3-0.6-0.5-0.9-0.7
								c-0.5-0.3-1.3-0.7-1.4-0.7C10.3,14.4,9.3,14.2,8.4,14.2z"/>
						</g>
					</g>
					<g>
						<g>
							<path class="st4" d="M8.3,20.1c0.5,0,0.9,0.4,0.9,0.9s-0.4,0.9-0.9,0.9S7.4,21.5,7.4,21C7.4,20.5,7.8,20.1,8.3,20.1z"/>
						</g>
					</g>
				</g>
			</g>
			<g>
				<g>
					<g>
						<g>
							<path class="st3" d="M30.3,20.9c0,2.1,0.9,4,2.4,5.3c1.4,1.4,3.4,2.2,5.6,2.2c2.2,0,4.1-0.9,5.6-2.3c1.4-1.4,2.3-3.3,2.2-5.4
								c0-2.1-0.9-4-2.4-5.4c-0.3-0.3-0.6-0.5-1-0.8c-0.6-0.4-1.5-0.8-1.5-0.8c-1-0.4-2-0.6-3.2-0.6c-2.2,0-4.1,0.9-5.6,2.3
								C31.1,16.9,30.2,18.8,30.3,20.9z M34,15.7l2.5,3.5c-0.2,0.2-0.3,0.4-0.4,0.7l-4.3-1.2c0.3-0.9,0.9-1.7,1.5-2.4
								C33.5,16,33.7,15.8,34,15.7z M37.7,18.5c-0.2,0-0.5,0.1-0.7,0.3l-2.5-3.4c0.9-0.6,2-0.9,3.1-1L37.7,18.5z M41.2,15
								c0.1,0,0.2,0.1,0.3,0.2l-2.4,3.5c-0.2-0.1-0.5-0.2-0.7-0.2l-0.1-4.2c0.9,0,1.8,0.2,2.6,0.6l0,0C41.1,14.9,41.2,14.9,41.2,15
								C41.3,15,41.2,15,41.2,15z M44.5,18.4l-4.3,1.3c-0.1-0.3-0.3-0.5-0.5-0.7l2.5-3.6c0.1,0,0.1,0.1,0.2,0.1
								c0.2,0.2,0.4,0.3,0.6,0.5C43.6,16.7,44.1,17.5,44.5,18.4z M44.8,22.3l-4.4-1.2c0-0.1,0-0.3,0-0.4s0-0.1,0-0.2l4.4-1.4
								c0.1,0.5,0.2,1,0.2,1.6C44.9,21.2,44.9,21.8,44.8,22.3z M42.3,25.9l-2.6-3.6c0.2-0.2,0.3-0.4,0.5-0.6l4.4,1.2
								c-0.3,0.9-0.9,1.7-1.5,2.4C42.8,25.5,42.5,25.7,42.3,25.9z M38.5,22.9c0.2,0,0.4-0.1,0.6-0.2l2.6,3.6c-0.9,0.6-2,0.9-3.2,1
								L38.5,22.9z M38.1,22.2c-0.8,0-1.5-0.7-1.5-1.5s0.7-1.5,1.5-1.5s1.5,0.7,1.5,1.5S39,22.2,38.1,22.2z M34.7,26.4l2.5-3.6
								c0.2,0.1,0.4,0.2,0.6,0.2l0.1,4.4C36.7,27.2,35.6,26.9,34.7,26.4z M31.8,23.1l4.3-1.3c0.1,0.2,0.3,0.4,0.4,0.6L34,26
								c-0.2-0.2-0.5-0.3-0.7-0.5C32.7,24.8,32.2,24,31.8,23.1z M31.6,22.4c-0.1-0.5-0.2-1-0.2-1.6c0-0.5,0.1-1.1,0.2-1.6l4.3,1.2
								c0,0.1,0,0.1,0,0.2s0,0.2,0,0.4L31.6,22.4z"/>
						</g>
					</g>
					<g>
						<g>
							<path class="st3" d="M38.1,19.8c0.5,0,0.9,0.4,0.9,0.9s-0.4,0.9-0.9,0.9s-0.9-0.4-0.9-0.9C37.2,20.2,37.6,19.8,38.1,19.8z"/>
						</g>
					</g>
				</g>
				<g>
					<g>
						<g>
							<path d="M38.2,28.9c-2.2,0-4.3-0.8-5.8-2.3c-1.6-1.5-2.5-3.5-2.5-5.7s0.8-4.2,2.4-5.8c1.6-1.5,3.7-2.4,5.9-2.4h0.1
								c1.1,0,2.2,0.2,3.2,0.6c0.1,0,1,0.4,1.6,0.8c0.4,0.2,0.7,0.5,1,0.8c1.6,1.5,2.5,3.5,2.5,5.7s-0.8,4.2-2.4,5.8
								C42.6,28,40.5,28.8,38.2,28.9L38.2,28.9z M38.2,13.7L38.2,13.7c-2.1,0-3.9,0.8-5.3,2.2c-1.4,1.4-2.1,3.2-2.1,5
								c0,1.9,0.8,3.7,2.2,5c1.4,1.3,3.2,2,5.2,2h0.1c2,0,3.8-0.8,5.2-2.2c1.4-1.4,2.1-3.1,2.1-5s-0.8-3.7-2.2-5
								c-0.3-0.3-0.6-0.5-0.9-0.7c-0.5-0.4-1.3-0.7-1.4-0.8C40.1,13.9,39.2,13.7,38.2,13.7z"/>
						</g>
					</g>
					<g>
						<g>
							<path class="st4" d="M38.1,19.8c0.5,0,0.9,0.4,0.9,0.9s-0.4,0.9-0.9,0.9s-0.9-0.4-0.9-0.9C37.2,20.2,37.6,19.8,38.1,19.8z"/>
						</g>
					</g>
				</g>
			</g>
			<g>
				<g>
					<path d="M44.9,9.9c0.2,0.2,0.4,0.3,0.2,0.6c-0.1,0.2-0.2,0.4-0.3,0.6c-0.1,0.3-0.5,1.1-0.3,1.4l-0.9-1.3L44.9,9.9z"/>
				</g>
			</g>
			<g>
				<g>
					<path class="st5" d="M44.6,12.5c-0.6-1.6,0.3-2.6,0.3-2.6c0.2-0.5,0.1-0.8,0-1c-0.2-0.2-0.4-0.3-0.4-0.3
						c-0.3-0.2-1.3,0.1-1.7,0.1c-1.2,0.1-2.4,0.2-3.6,0.3c-1,0.1-2.2,0.1-3.3,0.2c-1.5,0.1-2.2,1.1-3.1,2.2c-0.5,0.5-1,1.1-1.5,1.6
						c-0.3,0.3-0.6,0.5-0.8,0.7c-0.6,0.6-1.1,1.3-1.5,2c-0.4,0.8-0.7,1.6-1,2.5l5.7-0.1c0.1,0,0.1,0,0.2,0c0.4,0,1.3-0.1,2.3-0.5
						c0.6-0.3,1.3-0.8,1.9-1.6c0,0,0.2-0.3,0.5-0.7c0.8-1.1,1.6-1.6,2.4-1.7c0,0,1.4-0.4,3.5,1c0.2,0.1,0.4,0.1,0.6,0.1
						c0.3,0,0.5-0.1,0.8-0.2C45,13.8,44.7,13.1,44.6,12.5z M38.3,13.4L38.3,13.4L38.3,13.4L38.3,13.4z"/>
				</g>
			</g>
			<g>
				<g>
					<path class="st5" d="M7.4,12c0-0.1,0.1-0.2,0.2-0.2c0.3,0,0.5,0,0.8,0c1.4,0,2.7,0.2,4,0.8c0,0,0.6,0.3,0.8,0.4
						c2.8,1.6,4.6,4.5,4.7,7.6c0,0.4,0,0.7-0.1,1.1c0,0.1-0.1,0.2-0.2,0.2h-0.1c-0.1,0-0.1,0-0.2-0.1c-0.2-0.2-0.5-0.4-0.7-0.9v-0.1
						v-0.3c0-2.7-1.5-5.2-4-6.6c0,0-0.5-0.3-0.8-0.4c-1.1-0.5-2.3-0.7-3.5-0.7H8.2c-0.5-0.1-0.8-0.4-1-0.7C7.4,12.2,7.4,12.1,7.4,12
						z"/>
				</g>
			</g>
			<g>
				<g>
					<path class="st1" d="M11.7,11.8c0,0-0.6-0.1-1.1-0.1c-0.2,0-0.4,0-0.5,0l0,0c-0.1,0-0.1-0.2-0.1-0.2l0.1-1.2
						c0-0.2,0.2-0.2,0.2-0.2l1.5,0.2c0.4,0.1,0.7,0.4,0.7,0.8C12.6,11.6,12.2,11.8,11.7,11.8z M11.9,10.6c-0.3,0-0.5,0.1-0.5,0.4
						c0,0.2,0.2,0.5,0.4,0.5c0.3,0,0.5-0.1,0.5-0.4C12.3,10.9,12.2,10.6,11.9,10.6z"/>
				</g>
			</g>
			<g>
				<g>
					<polygon class="st0" points="9.1,11.1 9.7,11 9.7,9.7 9.1,9.6 					"/>
				</g>
			</g>
			<g>
				<g>
					<path class="st6" d="M13.6,5.5c0,0-1.3-1-3-1.2l0,0C10,4.2,9.5,4.2,9,4.1C8.6,4,8.3,4,8,4C7.8,4,7.6,3.9,7.6,3.9l0,0H7.5
						c0,0,0,0,0,0.1l0.8,5.1c0,0,0,0.1,0.1,0.1l3.5,0.4c0,0,0.1,0,0.1-0.1L13.6,5.5L13.6,5.5z"/>
				</g>
			</g>
			<g>
				<path class="st7" d="M38.5,19.8l-1.2-1.1L31.1,13L30,12l0.2-0.6h0.1h0.1c0.1,0,0.2-0.1,0.3-0.2c0.1-0.2,0-0.3-0.2-0.4l-0.2-0.1
					l-1-0.3L29,10.3h-0.1c-0.1,0-0.2,0.1-0.3,0.2c-0.1,0.2,0,0.3,0.2,0.4h0.1l-3.1,7.7h-0.1c-0.2,0-0.5,0-0.7,0.1l-1.2-2h0.3
					c0.3,0,0.5-0.2,0.5-0.4c0-0.2-0.2-0.4-0.5-0.4h-2.2c-0.2,0-0.5,0.2-0.4,0.4c0,0.2,0.2,0.4,0.5,0.4h0.9l1.3,2.1
					c-0.8,0.1-1.6,0.1-1.8,0.1c-0.7-0.1-1.4-0.4-1.9-0.9c-0.1-0.1-0.6-0.7-0.7-1c0,0,0,0,0-0.1l0,0l0,0c-0.1-0.2-0.1-0.4-0.2-0.6
					c-0.3-1.1-0.8-2.1-1.3-2.9c-0.8-1.3-1.7-2.3-2.4-2.9c-0.3-0.3-0.6-0.6-0.8-0.7l0.4-1c0,0,0,0,0-0.1l0.9-3l-1.5-0.3L14,8.3
					l-1.1,3c0,0.1,0,0.1,0,0.2s0.1,0.1,0.1,0.1h0.1c-0.2,0.6-0.5,1.2-0.7,1.9l-0.2,0.6c0,0.1-0.1,0.2-0.1,0.4l-0.2,0.6
					c0,0.1,0,0.1-0.1,0.2l-0.1,0.3c-0.1,0.3-0.2,0.5-0.3,0.7c-0.5,1.2-1.3,2.4-1.9,3.2c-0.3,0.4-0.6,0.8-0.8,1
					c-0.1,0.1-0.2,0.2-0.2,0.3c0,0,0,0-0.1,0.1l0,0c-0.2,0.2-0.2,0.5,0,0.6c0.1,0.1,0.2,0.1,0.3,0.1s0.2,0,0.3-0.1
					c0,0,0.5-0.6,1.2-1.4c0.7-0.9,1.5-2.1,2-3.4c0.1-0.2,0.2-0.4,0.3-0.6l0.8-2.1c0.2-0.5,0.4-1.1,0.6-1.5c0.1-0.1,0.1-0.3,0.2-0.4
					h0.1c0,0,0,0,0.1,0s0.2-0.1,0.2-0.1l0.2-0.5c0.3,0.3,0.6,0.6,1,1c0.5,0.5,1,1.2,1.5,1.9c0.5,0.7,0.9,1.6,1.2,2.6
					c0.3,1,0.7,2,1.1,3c0.2,0.5,0.5,1,0.8,1.5c1.5,2,3.8,1.8,6,1.8c0.2,0,0.5,0,0.7-0.1l0.8-0.4c0.4-0.3,0.7-0.8,0.7-1.3l1.4-0.1
					l1.2-0.1l7.6-0.4c0.2,0,0.3-0.1,0.4-0.3C38.6,20.1,38.6,19.9,38.5,19.8z M30.5,20.1h-0.4H30l-2,0.1c-0.1-0.6-0.5-1-1-1.3
					l2.6-6.1l0.7,0.6l4.9,4.5l0,0l1.9,1.7L30.5,20.1z"/>
				<path class="st8" d="M26.4,22.9C26.2,23,26,23,25.8,23h-0.4c-0.3,0-0.6,0-0.8,0c-1.7,0-3.5-0.1-4.8-1.8
					c-0.3-0.4-0.6-0.9-0.8-1.5c-0.4-1-0.8-2-1.1-3c-0.3-0.9-0.7-1.7-1.2-2.5c-0.4-0.7-0.9-1.3-1.4-1.9c-0.3-0.3-0.6-0.6-0.9-0.9
					l-0.1,0.4C14.2,11.9,14.1,12,14,12h-0.1l0,0v0.1c0,0.1-0.1,0.2-0.1,0.2c-0.1,0.4-0.3,0.8-0.5,1.3L13,13.8L12.1,16
					c-0.1,0.1-0.1,0.3-0.2,0.4c-0.5,1.1-1.1,2.3-2,3.4c-0.7,0.9-1.2,1.4-1.2,1.5c-0.1,0.1-0.2,0.2-0.4,0.2l0,0c-0.1,0-0.3,0-0.4-0.1
					c-0.1-0.1-0.2-0.2-0.2-0.4c0-0.1,0-0.3,0.1-0.4L8,20.7l-0.1-0.1c0,0,0,0,0.1-0.1c0,0,0.1-0.1,0.1-0.2l0.1-0.1
					c0.2-0.2,0.5-0.5,0.8-1c0.6-0.8,1.4-1.9,1.9-3.2c0.1-0.1,0.1-0.3,0.2-0.4c0-0.1,0.1-0.2,0.1-0.3l0,0c0-0.1,0.1-0.2,0.1-0.3
					c0,0,0-0.1,0.1-0.1l0,0l0,0c0-0.1,0.1-0.2,0.2-0.6c0-0.1,0.1-0.2,0.1-0.3l0,0l0,0c0-0.1,0.1-0.2,0.2-0.6
					c0.2-0.6,0.5-1.2,0.7-1.8c-0.1,0-0.1-0.1-0.1-0.1c0-0.1,0-0.2,0-0.3l1.1-3l0.9-3l1.7,0.3l-1,3.2c0,0,0,0,0,0.1l-0.3,0.9
					c0.2,0.2,0.5,0.4,0.8,0.7c0.9,0.9,1.8,1.9,2.4,2.9c0.6,0.9,1,1.9,1.3,3c0.1,0.2,0.1,0.4,0.2,0.6h-0.1h0.1V17
					c0.1,0.2,0.7,0.9,0.7,1c0.5,0.5,1.1,0.8,1.8,0.9c0.1,0,0.7,0,1.6-0.1l-1.2-1.9h-0.8c-0.3,0-0.6-0.2-0.6-0.5
					c0-0.1,0.1-0.3,0.1-0.4c0.1-0.1,0.2-0.2,0.4-0.2h2.2c0.3,0,0.6,0.2,0.6,0.5s-0.2,0.5-0.6,0.5h-0.1l1.1,1.8
					c0.2-0.1,0.4-0.1,0.6-0.1l0,0l3-7.5l0,0c-0.1,0-0.2-0.1-0.2-0.2s0-0.2,0-0.3c0.1-0.2,0.2-0.3,0.4-0.3c0.1,0,0.1,0,0.1,0l0.3,0.1
					l1.2,0.4h0.1c0.1,0,0.2,0.1,0.2,0.2s0,0.2,0,0.3c-0.1,0.2-0.2,0.3-0.4,0.3l0,0c-0.1,0-0.1,0-0.2,0l-0.2,0.4l1.1,1l7.4,6.8
					c0.2,0.1,0.2,0.4,0.1,0.6c-0.1,0.2-0.3,0.3-0.5,0.3l-10.1,0.6c-0.1,0.5-0.3,0.9-0.7,1.2L26.4,22.9z M26.5,22.7l0.6-0.3l0.1-0.1
					c0.4-0.3,0.6-0.7,0.7-1.2V21l10.3-0.6c0.1,0,0.3-0.1,0.3-0.2s0-0.3-0.1-0.3L29.8,12l0.3-0.7l0.2,0.1c0,0,0,0,0.1,0
					s0.2-0.1,0.2-0.1v-0.1c0-0.1-0.1-0.1-0.1-0.1L30.2,11l-0.8-0.3L29,10.5h-0.1c-0.1,0-0.2,0.1-0.2,0.1v0.1c0,0.1,0.1,0.1,0.1,0.1
					l0.2,0.1l-3.1,7.9h-0.1c0,0,0,0-0.1,0c0,0,0,0-0.1,0c-0.2,0-0.4,0-0.7,0.1h-0.1l-1.4-2.3h0.4c0.2,0,0.4-0.2,0.4-0.3
					c0-0.2-0.2-0.3-0.4-0.3h-2.2c-0.1,0-0.2,0-0.3,0.1c-0.1,0.1-0.1,0.1-0.1,0.2c0,0.2,0.2,0.3,0.4,0.3h0.9l1.4,2.3h-0.2
					c-0.5,0-1.6,0.1-1.8,0.1c-0.7-0.1-1.4-0.5-1.9-0.9c-0.1-0.1-0.6-0.8-0.8-1l0,0l0,0V17c-0.1-0.2-0.1-0.4-0.2-0.6
					c-0.3-1-0.7-2-1.3-2.9c-0.7-1.1-1.5-2-2.4-2.9c-0.3-0.3-0.6-0.6-0.8-0.7h-0.1l0.4-1.1l0.9-2.9l-1.3-0.3l-0.9,2.8l-1.1,3v0.1
					c0,0,0,0,0.1,0.1l0.2,0.1v0.1c-0.2,0.6-0.5,1.2-0.7,1.9c-0.1,0.2-0.2,0.4-0.2,0.5l0,0v0.1c0,0.1-0.1,0.2-0.1,0.3
					c-0.1,0.2-0.2,0.4-0.2,0.5l0,0v0.1c0,0.1,0,0.1-0.1,0.1c0,0.1-0.1,0.2-0.1,0.2l0,0v0.1c0,0.1-0.1,0.2-0.1,0.3
					c-0.1,0.1-0.1,0.3-0.2,0.4c-0.5,1.3-1.3,2.5-1.9,3.3c-0.3,0.5-0.6,0.8-0.8,1l-0.1,0.1c-0.1,0.1-0.1,0.1-0.2,0.2c0,0,0,0-0.1,0.1
					l0,0c0,0.1-0.1,0.1-0.1,0.2s0,0.2,0.1,0.2c0.1,0.1,0.2,0.1,0.2,0.1c0.1,0,0.2,0,0.3-0.1c0,0,0.5-0.5,1.2-1.4
					c0.9-1.2,1.6-2.3,2-3.4c0.1-0.1,0.1-0.3,0.2-0.4l0.1-0.2l0.9-2.4c0.2-0.4,0.3-0.9,0.5-1.2c0-0.1,0.1-0.2,0.1-0.2l0.1-0.3
					l0.2,0.1c0.1,0,0.1,0,0.2-0.1l0.2-0.6l0.1,0.1c0.4,0.3,0.7,0.7,1,1c0.6,0.6,1,1.3,1.5,1.9c0.5,0.8,0.9,1.7,1.2,2.6
					c0.3,1,0.6,2,1.1,3c0.2,0.6,0.5,1.1,0.8,1.5c1.2,1.6,3,1.7,4.6,1.7c0.3,0,0.6,0,0.8,0h0.4C26,22.8,26.2,22.8,26.5,22.7
					L26.5,22.7z M27.9,20.3L27.9,20.3c-0.1-0.6-0.5-1-1-1.3h-0.1l2.7-6.3l7.8,7.2L27.9,20.3z M27.1,18.9c0.5,0.3,0.8,0.7,0.9,1.2
					l8.8-0.5L29.6,13L27.1,18.9z"/>
			</g>
			<g>
				<g>
					<path d="M24.8,16.2c0,0.3-0.3,0.6-0.6,0.6h-2.6c-0.3,0-0.6-0.3-0.6-0.6c0-0.3,0.3-0.6,0.6-0.6h2.6
						C24.5,15.6,24.8,15.9,24.8,16.2z"/>
				</g>
			</g>
			<g>
				<g>
					<g>
						<path class="st1" d="M13.1,2.2c0,0-0.5,2.1,1.5,3.3l1,0.5c0.7,0.4,1.3-0.4,1.7-0.8c0.5-0.6,0.7-0.8-0.1-1.3l-3-1.7
							C14.2,2.2,13.1,1.4,13.1,2.2z"/>
					</g>
				</g>
				<g>
					<g>
						<path class="st5" d="M13,2.5c0,0-0.2-0.9,0.5-0.9c0,0,0.2,0,1.2,0.6l2.9,1.7c0,0,0.4,0.3-0.2,1C17.5,4.9,13.4,1.9,13,2.5z"/>
					</g>
				</g>
			</g>
			<g>
				<g>
					<path class="st5" d="M13.1,1.8c0,0,0.3-1.3,2.3-0.4c0,0,1.4,0.8,2.3,1.8c0,0,0.6,0.7-0.2,1.6l-0.2-0.9l-3.6-1.8L13.1,1.8z"/>
				</g>
			</g>
			<g>
				<g>
					<path class="st7" d="M16.1,3c-0.1,0-0.3-0.1-0.4-0.2c-0.2-0.2-0.2-0.5,0-0.7l1.7-1.5c0.1-0.1,1.2-0.8,3.6-0.1
						c0.3,0.1,0.4,0.4,0.3,0.6c-0.1,0.3-0.4,0.4-0.6,0.3c-1.9-0.6-2.6-0.1-2.6-0.1l-1.7,1.4C16.4,3,16.2,3,16.1,3z"/>
					<path class="st8" d="M16.1,3.1c-0.2,0-0.3-0.1-0.5-0.2c-0.2-0.3-0.2-0.6,0.1-0.9l1.7-1.5c0.2-0.1,0.7-0.4,1.7-0.4
						c0.6,0,1.2,0.1,1.9,0.3c0.3,0.1,0.5,0.4,0.4,0.8c-0.1,0.3-0.4,0.5-0.8,0.4C20,1.4,19.5,1.3,19,1.3c-0.7,0-1,0.2-1,0.2l-1.6,1.4
						C16.4,3,16.3,3.1,16.1,3.1z M19.1,0.3c-1,0-1.5,0.3-1.6,0.4l-1.7,1.5c-0.2,0.1-0.2,0.4,0,0.6c0.1,0.2,0.4,0.2,0.6,0L18,1.3
						c0,0,0.3-0.2,1.1-0.2c0.5,0,1,0.1,1.7,0.3c0.2,0.1,0.4-0.1,0.5-0.3c0.1-0.2-0.1-0.4-0.3-0.5C20.3,0.4,19.7,0.3,19.1,0.3z"/>
				</g>
			</g>
			<g>
				<g>
					<path class="st6" d="M22.3,2.3c-0.1,0-0.1,0-0.2,0l-2.8-0.7c-0.5-0.1-0.7-0.6-0.6-1c0.1-0.5,0.6-0.7,1-0.6l2.8,0.7
						c0.5,0.1,0.7,0.6,0.6,1C23,2,22.7,2.3,22.3,2.3z"/>
				</g>
			</g>
			<g>
				<g>
					<polyline class="st7" points="38.3,13.6 38.3,13.6 38.3,13.6 38.3,13.6 					"/>
				</g>
				<g>
					<path class="st7" d="M34.9,14L34.9,14C35,14,35,13.9,34.9,14C35,13.9,35,13.9,34.9,14c0.1-0.1,0.1-0.1,0.1-0.1l0.1-0.1
						c0.1-0.1,0.1-0.2,0-0.3c-0.1-0.1-0.4,0-0.5,0.1s-0.1,0.2-0.1,0.3c0,0.1,0.1,0.2,0.2,0.2C34.8,14,34.8,14,34.9,14 M34.9,13.6
						L34.9,13.6L34.9,13.6c0,0.1,0,0.1,0,0.1l0,0c0,0,0,0-0.1,0C34.8,13.7,34.8,13.7,34.9,13.6C34.8,13.7,34.9,13.6,34.9,13.6
						L34.9,13.6 M34.8,13.5L34.8,13.5L34.8,13.5C34.8,13.5,34.9,13.5,34.8,13.5C34.9,13.5,34.9,13.5,34.8,13.5 M35.1,13.5
						C35,13.5,35,13.5,35.1,13.5C35,13.5,35,13.5,35.1,13.5C35,13.4,35,13.4,35.1,13.5C35,13.4,35,13.4,35.1,13.5 M34.6,13.8
						c0-0.1,0.1-0.1,0.1-0.2C34.7,13.6,34.6,13.7,34.6,13.8C34.6,13.7,34.6,13.8,34.6,13.8c0.1,0.1,0.2,0.1,0.2,0.2c0,0,0,0-0.1,0
						C34.6,13.9,34.6,13.8,34.6,13.8"/>
				</g>
				<g>
					<path class="st7" d="M37.1,12.6c0.1-0.1,0.1-0.2,0-0.3c-0.1-0.1-0.4,0-0.5,0.1s-0.1,0.2-0.1,0.3c0,0.1,0.1,0.2,0.2,0.2
						c0.1,0,0.1,0,0.2-0.1c0,0,0,0,0.1,0s0.1-0.1,0-0.1l0,0l0,0C37.1,12.7,37.1,12.7,37.1,12.6 M36.9,12.5
						C37,12.5,37,12.5,36.9,12.5C37,12.6,37,12.6,36.9,12.5c0,0.1,0,0.1,0,0.1l0,0c0,0,0,0-0.1,0C36.8,12.7,36.8,12.6,36.9,12.5
						C36.9,12.6,36.9,12.5,36.9,12.5L36.9,12.5 M36.9,12.4L36.9,12.4C36.8,12.4,36.8,12.4,36.9,12.4L36.9,12.4L36.9,12.4 M37.1,12.4
						L37.1,12.4C37,12.4,37,12.4,37.1,12.4C37,12.3,37,12.3,37.1,12.4C37.1,12.3,37.1,12.3,37.1,12.4 M36.7,12.9
						c-0.1,0-0.1-0.1-0.1-0.2s0.1-0.1,0.1-0.2v0.1v0.1C36.7,12.8,36.8,12.8,36.7,12.9C36.8,12.8,36.8,12.8,36.7,12.9"/>
				</g>
				<g>
					<path class="st7" d="M38.5,12.5C38.5,12.5,38.4,12.5,38.5,12.5C38.4,12.5,38.4,12.5,38.5,12.5L38.5,12.5L38.5,12.5
						C38.4,12.5,38.4,12.5,38.5,12.5c-0.1,0-0.2,0-0.2,0s0,0,0,0.1c0,0,0,0,0,0.1c0,0,0,0.1,0.2,0.1l0,0l0,0l0,0l0,0l0,0l0,0l0,0
						l0,0c0,0,0,0,0-0.1l0,0C38.6,12.6,38.5,12.6,38.5,12.5C38.5,12.6,38.5,12.6,38.5,12.5L38.5,12.5"/>
				</g>
				<g>
					<path class="st7" d="M40.1,12.8L40.1,12.8c-0.3,0-0.5,0-0.7-0.1c0-0.1,0.1-0.3,0.1-0.4c0,0,0-0.1-0.1-0.1c0,0-0.1,0-0.1,0.1
						c-0.1,0.2-0.1,0.3-0.2,0.5v-0.1c0-0.1,0-0.1,0-0.2l0,0c0,0,0-0.1-0.1-0.1s-0.1,0-0.1,0.1c0,0,0,0.1,0,0.2c0,0.2,0,0.5,0.1,0.7
						l0.1,0.1c0,0,0.1,0,0.1-0.1s0-0.3,0.1-0.4c0.2,0.1,0.5,0.1,0.7,0.1h0.1C40.1,13,40.1,13,40.1,12.8
						C40.1,12.9,40.1,12.8,40.1,12.8"/>
				</g>
				<g>
					<path class="st7" d="M38.5,12.9c0,0-0.1,0.1,0,0.1c0.1,0.1,0.1,0.2,0.1,0.3c0,0.1,0,0.1,0.1,0.2l0.1,0.1l0.1-0.1
						c0-0.1,0-0.1-0.1-0.2c0-0.1-0.1-0.2-0.1-0.3C38.6,12.9,38.5,12.9,38.5,12.9"/>
				</g>
				<g>
					<polyline class="st7" points="39.9,12.1 39.9,12.1 39.9,12.1 39.9,12.1 					"/>
				</g>
				<g>
					<path class="st7" d="M40.9,12.2L40.9,12.2c-0.2,0.1-0.5,0.3-0.7,0.3h-0.1c0.1-0.2,0.2-0.3,0.2-0.4l0,0l0,0V12
						c0-0.1-0.1-0.1-0.1-0.1c-0.1,0-0.3,0.1-0.3,0.2c-0.1,0.1-0.1,0.3,0,0.4v0.1l0,0H40c0.1,0.1,0.2,0.1,0.3,0.1
						c0.3,0,0.6-0.2,0.7-0.3C41,12.3,41,12.2,40.9,12.2 M40,12.2L40,12.2C40,12.2,40.1,12.1,40,12.2c0.1,0,0.1,0,0,0.1V12.2"/>
				</g>
				<g>
					<path class="st7" d="M38.3,13.2c-0.1-0.1-0.3,0-0.4,0.1c0-0.1,0-0.2,0-0.4c0-0.1,0-0.1-0.1-0.1s-0.1,0-0.1,0.1
						c0,0.2,0,0.4,0.1,0.5v0.1l0,0c0,0.1,0,0.2,0.1,0.3v0.1c0,0,0,0.1,0.1,0.1l0,0h0.1c0.1-0.1,0.2-0.3,0.3-0.4l0,0l0,0
						C38.4,13.5,38.4,13.4,38.3,13.2C38.3,13.3,38.3,13.2,38.3,13.2L38.3,13.2 M38.1,13.5L38.1,13.5c0,0.1-0.1,0.2-0.2,0.3
						c0-0.1,0-0.2-0.1-0.3c0.2-0.2,0.2-0.1,0.3-0.1l0,0C38.2,13.4,38.2,13.5,38.1,13.5"/>
				</g>
				<g>
					<polyline class="st7" points="38.3,13.6 38.3,13.6 38.3,13.6 38.3,13.6 					"/>
				</g>
				<g>
					<path class="st7" d="M37,13.3L37,13.3l-0.1,0.1l0,0c0.1,0.4,0,0.8-0.2,1.1c-0.3,0.3-0.6,0.4-1,0.4c-0.3,0-0.5-0.3-0.6-0.5
						c0-0.1-0.1,0-0.1,0s0,0,0,0.1v0.1c0.1,0.4,0.5,0.6,0.9,0.6s0.8-0.2,1.1-0.5s0.5-0.8,0.3-1.2l0,0C37.1,13.3,37.1,13.3,37,13.3"
						/>
				</g>
				<g>
					<path class="st7" d="M40.7,11.6C40.7,11.7,40.7,11.7,40.7,11.6l0.1-1.1l0,0l-0.2,0.1l0,0l0,0l0,0L40.5,10l0,0l-0.1,1.1l0,0
						l0.2-0.1l0,0l0,0l0,0L40.7,11.6z"/>
				</g>
			</g>
			<g>
				<path class="st5" d="M36.3,9.2c0,0,5.3-0.9,7.6-1.5c0,0,0.9-0.1,1.3,1c0,0,0.3,0.4-0.5,1.5L36.3,9.2z"/>
			</g>
			<g>
				<path class="st9" d="M42.5,8l0.4,0.3c0,0,1.3-0.4,1.9-0.4c0,0-0.2-0.3-0.9-0.3L42.5,8z"/>
			</g>
		</g>
		<g>
			<g>
				<g>
					<path class="st10" d="M30.2,7.7C30.1,7.7,30.1,7.7,30.2,7.7c-0.1,0-0.1,0-0.2,0s-0.2-0.1-0.3-0.2c-0.1-0.1-0.1-0.1-0.2-0.2
						c0,0-0.2-0.2-0.4-0.2h-0.5h-0.1c0,0-0.1,0.1-0.2,0c-0.1,0-0.1-0.1,0-0.2c0-0.1,0.1-0.1,0.2-0.1H29c0,0,0.4,0,0.5,0.1
						s0.2,0.1,0.2,0.2l0.1,0.1c0.1,0,0.4,0.1,0.5,0.1L30.2,7.7z"/>
				</g>
				<g>
					<path class="st11" d="M30.1,7.9c-0.2-0.1-0.3-0.2-0.4-0.4l-0.1-0.1c0,0-0.1-0.1-0.4-0.1h-0.5c0,0,0,0-0.1,0c0,0-0.1,0.1-0.3,0
						c-0.1-0.1-0.1-0.2,0-0.3c0-0.1,0.2-0.1,0.3-0.1h0.5c0,0,0,0,0.1,0s0.3,0,0.4,0.1s0.2,0.1,0.2,0.2l0.1,0.1c0.2,0.1,0.4,0,0.6,0
						c0,0.2-0.2,0.4-0.3,0.6C30.1,7.9,30.1,7.9,30.1,7.9z"/>
				</g>
			</g>
			<g>
				<g>
					<g>
						<path class="st12" d="M29,6.1l0.4,0.6c0.2,0.3,0.5,0.6,0.9,0.7h-0.1h0.3l-1.3,3.2l0.9,0.2l1.3-3.4h0.8c0,0.1,0.1,0.1,0.1,0.2
							l0,0c0.1,0.1,0.3,0.2,0.5,0.2s0.4-0.1,0.6-0.2c0.1,0,0.1-0.1,0.1-0.1c0.1-0.2,0.2-0.4,0.1-0.6l0,0c0-0.1-0.1-0.2-0.2-0.2H32
							c-0.2,0-0.1,0.3-0.1,0.4c0,0-0.4,0-0.5,0c0,0,0-0.1-0.1-0.1l-0.1-0.1c-0.1,0-0.2,0-0.3,0c-0.2,0-0.4,0-0.5,0.2v0.1
							c-0.1,0-0.2,0-0.2,0c-0.1,0-0.1,0-0.2,0c-0.3,0-0.5-0.2-0.6-0.4l0.1-0.7H29z"/>
					</g>
				</g>
			</g>
			<g>
				<g>
					<path class="st13" d="M31,11.4c-0.1,0.2-0.3,0.4-0.5,0.3l-2-0.8c-0.3-0.1-0.3-0.3-0.2-0.6l0,0c0.1-0.2,0.2-0.4,0.5-0.3l2,0.8
						C31.1,10.9,31.1,11.1,31,11.4L31,11.4z"/>
				</g>
			</g>
			<g>
				<path class="st12" d="M30,8.3l0.4-1l0,0l0,0l0.2-0.5l0,0c0.1-0.3,0.5-0.5,0.8-0.4c0.3,0.1,0.5,0.5,0.4,0.8l0,0l0,0
					c0,0,0,0,0,0.1l-0.1,0.4l-0.4,1.1L30,8.3z"/>
			</g>
			<g>
				<g>
					<path id="SVGID_1_" class="st6" d="M27.5,4.6h1.4c0.4,0,0.8,0,1.1,0l0,0c0.7,0,2.1-0.4,2.1-0.4c1.2-0.3,2.1,0,2.1,0
						c0.9,0.3,1,1.3,1,1.3l0,0c0,0.3-0.1,0.6-0.5,0.8c-0.1,0-0.1,0.1-0.2,0.1l0,0l0,0h-0.1l-6.9-0.1c-0.3,0-0.6-0.3-0.6-0.7V5.4
						C26.9,4.9,27.2,4.6,27.5,4.6z"/>
				</g>
				<g>
					<defs>
						<path id="SVGID_2_" d="M27.5,4.6h1.4c0.4,0,0.8,0,1.1,0l0,0c0.7,0,2.1-0.4,2.1-0.4c1.2-0.3,2.1,0,2.1,0c0.9,0.3,1,1.3,1,1.3
							l0,0c0,0.3-0.1,0.6-0.5,0.8c-0.1,0-0.1,0.1-0.2,0.1l0,0l0,0h-0.1l-6.9-0.1c-0.3,0-0.6-0.3-0.6-0.7V5.4
							C26.9,4.9,27.2,4.6,27.5,4.6z"/>
					</defs>
					<clipPath id="SVGID_3_">
						<use xlink:href="#SVGID_2_"  style="overflow:visible;"/>
					</clipPath>
					<g class="st14">
						<g>
							<path class="st2" d="M28.8,5.3c1.6,0,2.7-0.3,2.7-0.3C33.8,4.3,35,5,35,5l0.1-0.1c0,0-1.3-0.7-3.6,0c0,0-2,0.6-4.6,0.1v0.1
								C27.5,5.2,28.2,5.3,28.8,5.3z"/>
						</g>
					</g>
				</g>
			</g>
		</g>
	</g>
	<g>
		<g>
			<g>
				<path class="st7" d="M28.6,25.2c0.2-0.1,0.3-0.5,0.2-0.7l-2.6-4.1c-0.1-0.2-0.5-0.3-0.7-0.2c-0.2,0.1-0.3,0.5-0.2,0.7l2.6,4.1
					C28.1,25.3,28.4,25.3,28.6,25.2z"/>
				<path class="st8" d="M28.3,25.4c-0.2,0-0.4-0.1-0.5-0.3L25.2,21c-0.1-0.1-0.1-0.3-0.1-0.4c0-0.2,0.1-0.3,0.3-0.4
					c0.1-0.1,0.2-0.1,0.3-0.1c0.2,0,0.4,0.1,0.5,0.3l2.6,4.1c0.1,0.1,0.1,0.3,0.1,0.4c0,0.2-0.1,0.3-0.3,0.4
					C28.6,25.3,28.5,25.4,28.3,25.4z M25.8,20.2c-0.1,0-0.2,0-0.2,0.1c-0.1,0.1-0.2,0.2-0.2,0.3c0,0.1,0,0.2,0.1,0.3l2.6,4.1
					c0.1,0.2,0.4,0.3,0.6,0.1c0.1-0.1,0.2-0.2,0.2-0.3c0-0.1,0-0.2-0.1-0.3l-2.6-4.1C26.1,20.3,25.9,20.2,25.8,20.2z"/>
			</g>
		</g>
		<g>
			<g>
				<path d="M30.6,25.3c0,0.3-0.3,0.6-0.6,0.6h-2.6c-0.3,0-0.6-0.3-0.6-0.6c0-0.3,0.3-0.6,0.6-0.6H30C30.3,24.7,30.6,24.9,30.6,25.3
					z"/>
			</g>
		</g>
	</g>
	<g>
		<polyline class="st5" points="16.7,13.3 16.7,13.3 16.7,13.3 16.7,13.3 		"/>
		<path class="st5" d="M16.3,11.9C16.3,11.9,16.3,12,16.3,11.9C16.3,12,16.4,12,16.3,11.9C16.4,12,16.4,12,16.3,11.9
			C16.4,12,16.4,12,16.3,11.9c0.1,0.1,0.1,0.1,0.1,0.1h0.1c0-0.1,0-0.2-0.1-0.2c0,0-0.1-0.1-0.1,0C16.3,11.8,16.3,11.8,16.3,11.9
			L16.3,11.9 M16.5,11.9L16.5,11.9L16.5,11.9L16.5,11.9C16.4,11.9,16.4,11.9,16.5,11.9C16.4,11.9,16.4,11.9,16.5,11.9
			C16.4,11.9,16.4,11.9,16.5,11.9L16.5,11.9L16.5,11.9 M16.5,11.9L16.5,11.9L16.5,11.9L16.5,11.9L16.5,11.9 M16.6,12L16.6,12
			C16.6,12,16.6,11.9,16.6,12C16.6,11.9,16.6,11.9,16.6,12L16.6,12 M16.4,11.8C16.4,11.8,16.5,11.8,16.4,11.8
			C16.5,11.8,16.5,11.8,16.4,11.8L16.4,11.8C16.4,11.8,16.4,11.9,16.4,11.8C16.3,11.9,16.3,11.9,16.4,11.8
			C16.3,11.8,16.4,11.8,16.4,11.8"/>
		<path class="st5" d="M17,12.8h0.1c0-0.1,0-0.2-0.1-0.2c0,0-0.1-0.1-0.1,0l-0.1,0.1c0,0,0,0,0,0.1l0,0C16.9,12.8,16.9,12.8,17,12.8
			C16.9,12.7,16.9,12.7,17,12.8C16.9,12.7,16.9,12.8,17,12.8L17,12.8 M17,12.7L17,12.7L17,12.7L17,12.7L17,12.7L17,12.7L17,12.7
			L17,12.7L17,12.7 M17.1,12.7L17.1,12.7L17.1,12.7L17.1,12.7L17.1,12.7 M17.1,12.8C17.1,12.8,17.1,12.7,17.1,12.8
			C17.1,12.7,17.1,12.7,17.1,12.8C17.1,12.7,17.1,12.7,17.1,12.8C17.1,12.7,17.1,12.8,17.1,12.8 M16.9,12.6L16.9,12.6
			c0.1-0.1,0.1-0.1,0.1,0C17,12.6,17,12.6,16.9,12.6C17,12.6,17,12.6,16.9,12.6L16.9,12.6C16.9,12.7,16.9,12.7,16.9,12.6"/>
		<path class="st5" d="M17.1,13.3L17.1,13.3L17.1,13.3L17.1,13.3L17.1,13.3L17.1,13.3L17.1,13.3L17.1,13.3
			C17.1,13.2,17.1,13.3,17.1,13.3c-0.1-0.1-0.1-0.1-0.1,0l0,0l0,0l0,0l0,0l0,0l0,0l0,0C17,13.4,17,13.4,17.1,13.3
			C17,13.4,17.1,13.4,17.1,13.3C17.1,13.4,17.1,13.4,17.1,13.3C17.1,13.4,17.1,13.4,17.1,13.3C17.1,13.4,17.1,13.4,17.1,13.3
			L17.1,13.3"/>
		<path class="st5" d="M17.1,14L17.1,14c0-0.1,0-0.2,0-0.3c0.1,0,0.1,0,0.2,0l0,0l0,0c-0.1,0-0.1,0-0.2,0l0,0c0,0,0,0,0.1,0l0,0l0,0
			l0,0c0,0,0,0-0.1,0s-0.2,0-0.3,0.1l0,0l0,0c0.1,0,0.1,0,0.2,0C17,13.8,17,13.9,17.1,14L17.1,14C17,14,17,14,17.1,14L17.1,14"/>
		<path class="st5" d="M17,13.4C17,13.3,16.9,13.3,17,13.4c-0.1,0-0.1,0-0.2,0.1h-0.1c0,0,0,0,0,0.1c0,0,0,0,0.1,0c0,0,0,0,0.1,0
			C16.9,13.5,16.9,13.4,17,13.4L17,13.4"/>
		<polyline class="st5" points="17.4,13.9 17.4,13.9 17.4,13.9 17.4,13.9 		"/>
		<path class="st5" d="M17.4,14.3L17.4,14.3c-0.1-0.1-0.1-0.2-0.2-0.3l0,0c0.1,0,0.1,0.1,0.2,0.1l0,0l0,0l0,0l0,0
			c0-0.1-0.1-0.1-0.1-0.1s-0.1,0-0.2,0l0,0l0,0l0,0v0.1C17.2,14.2,17.3,14.3,17.4,14.3L17.4,14.3 M17.4,14L17.4,14L17.4,14
			C17.4,14,17.3,14,17.4,14C17.3,14,17.3,13.9,17.4,14"/>
		<path class="st5" d="M16.8,13.3c0-0.1,0-0.1-0.1-0.2c0,0,0.1,0,0.2,0l0,0l0,0c-0.1,0-0.1,0-0.2,0.1c0,0,0,0-0.1,0l0,0h-0.1l0,0
			l0,0l0,0c0,0,0,0,0,0.1c0.1,0,0.1,0.1,0.2,0.1l0,0l0,0C16.7,13.3,16.8,13.3,16.8,13.3L16.8,13.3L16.8,13.3 M16.7,13.3L16.7,13.3
			c0,0-0.1,0-0.1-0.1C16.6,13.2,16.7,13.2,16.7,13.3C16.8,13.2,16.8,13.3,16.7,13.3C16.8,13.3,16.8,13.3,16.7,13.3
			C16.8,13.3,16.7,13.3,16.7,13.3"/>
		<polyline class="st5" points="16.7,13.3 16.7,13.3 16.7,13.3 16.7,13.3 		"/>
		<path class="st5" d="M16.7,12.8L16.7,12.8L16.7,12.8L16.7,12.8c-0.2,0.1-0.4,0-0.5-0.1S16,12.5,16,12.3c0-0.1,0.1-0.2,0.2-0.3
			c0,0,0,0,0-0.1l0,0l0,0C16.1,12,16,12.1,16,12.3c0,0.2,0.1,0.3,0.3,0.4C16.3,12.9,16.5,13,16.7,12.8
			C16.7,12.9,16.7,12.9,16.7,12.8L16.7,12.8"/>
		<path class="st5" d="M17.6,14.2L17.6,14.2h0.5l0,0L18,14.1l0,0l0,0l0,0l0.2-0.1l0,0h-0.5l0,0l0.1,0.1l0,0l0,0l0,0L17.6,14.2z"/>
	</g>
</g>
</svg>
