<?xml version="1.0" encoding="utf-8"?>
<!-- Generator: Adobe Illustrator 25.3.1, SVG Export Plug-In . SVG Version: 6.00 Build 0)  -->
<svg version="1.1" id="分離模式" xmlns="http://www.w3.org/2000/svg" xmlns:xlink="http://www.w3.org/1999/xlink" x="0px"
	 y="0px" viewBox="0 0 46.6 27.6" style="enable-background:new 0 0 46.6 27.6;" xml:space="preserve">
<style type="text/css">
	.st0{fill:#D93B2A;}
	.st1{fill:#9D9F9F;}
	.st2{fill:#070102;}
	.st3{fill:#FFF000;}
	.st4{fill:#5C5D5E;}
	.st5{fill:#060001;}
	.st6{fill:#FFFFFF;}
	.st7{fill:#F08000;}
	.st8{fill:#0C863F;}
	.st9{fill:#3C3A39;}
	.st10{fill:#211613;}
	.st11{clip-path:url(#SVGID_3_);}
	.st12{fill:#14843B;}
</style>
<g>
	<g>
		<g>
			<polygon class="st0" points="44.9,10.5 45.3,10.5 45.4,12.3 44.5,12.4 44.2,11 			"/>
			<g>
				<g>
					<path class="st1" d="M17.2,1h-2.6l0,0c-0.1,0-0.3,0-0.4-0.1l0,0c0,0-0.1,0-0.1,0.1c0,0,0,0-0.1,0.1c0,0.1,0,0.2,0,0.3
						c0,0.1,0,0.1,0,0.1l0,0l0,0l0.1,1l1.6,1.3c0.1,0.1,0.1,0.2,0.1,0.3c0,0-0.6,1.8-1.2,3.3h-0.8c0.4-1.1,1.1-2.9,1.3-3.3l-1.5-1.3
						c-0.1-0.1-0.1-0.1-0.1-0.2l-0.1-1.1c0,0,0-0.1,0-0.2s0-0.2,0-0.4c0-0.1,0.1-0.3,0.2-0.4c0.1-0.1,0.2-0.2,0.3-0.2H14
						C14.1,0.1,14.3,0,14.5,0h2.6l0,0c0.3,0,0.5,0.2,0.6,0.5C17.7,0.8,17.5,1,17.2,1z"/>
				</g>
				<path class="st2" d="M14.1,0.3C14.2,0.1,14.4,0,14.6,0h2.6l0,0c0.3,0,0.6,0.3,0.6,0.6c0,0.3-0.3,0.6-0.6,0.6h-2.6l0,0
					c-0.1,0-0.3-0.1-0.4-0.1C14.1,0.9,14.1,0.7,14.1,0.3L14.1,0.3L14.1,0.3z"/>
			</g>
			<g>
				<path class="st3" d="M7.4,10.7c0-0.1,0.1-0.1,0.2-0.2c0.3,0,0.5,0,0.8,0c1.3,0,2.6,0.2,3.7,0.7c0,0,0.6,0.3,0.8,0.4
					c2.7,1.5,4.3,4.2,4.4,7.1c0,0.3,0,0.7,0,1c0,0.1-0.1,0.2-0.2,0.2H17c-0.1,0-0.1,0-0.2-0.1c-0.2-0.2-0.5-0.4-0.6-0.8v-0.1v-0.3
					c0-2.5-1.4-4.8-3.7-6.1c0,0-0.4-0.2-0.7-0.4c-1-0.4-2.1-0.7-3.3-0.7H8.4c-0.5-0.1-0.8-0.4-0.9-0.6C7.3,10.9,7.3,10.8,7.4,10.7z"
					/>
			</g>
			<g>
				<g>
					<g>
						<path class="st4" d="M0.5,19.7c0,2,0.9,3.8,2.3,5c1.4,1.3,3.3,2.1,5.4,2c2.1,0,4-0.9,5.3-2.2s2.2-3.1,2.1-5.1
							c0-2-0.9-3.8-2.3-5.1c-0.3-0.3-0.6-0.5-0.9-0.7c-0.6-0.4-1.4-0.8-1.4-0.8c-0.9-0.4-2-0.6-3-0.6c-2.1,0-4,0.9-5.3,2.2
							C1.3,15.9,0.5,17.7,0.5,19.7z M4,14.8l2.4,3.3c-0.2,0.2-0.3,0.4-0.4,0.6l-4.1-1.1c0.3-0.9,0.8-1.6,1.5-2.3
							C3.6,15.1,3.8,15,4,14.8z M7.6,17.4c-0.2,0.1-0.4,0.1-0.6,0.3l-2.4-3.2c0.9-0.5,1.9-0.9,3-0.9V17.4z M11,14.1
							c0.1,0,0.2,0.1,0.3,0.2L9,17.6c-0.2-0.1-0.4-0.2-0.7-0.2l-0.1-3.9c0.9,0,1.7,0.2,2.5,0.5l0,0C10.8,14,10.9,14.1,11,14.1
							L11,14.1z M14.1,17.4L10,18.7c-0.1-0.2-0.3-0.5-0.5-0.6l2.4-3.4c0.1,0,0.1,0.1,0.2,0.1c0.2,0.1,0.4,0.3,0.5,0.5
							C13.2,15.8,13.8,16.5,14.1,17.4z M14.4,21l-4.2-1.2c0-0.1,0-0.2,0-0.4c0-0.1,0-0.1,0-0.2l4.2-1.3c0.1,0.5,0.2,1,0.2,1.5
							C14.5,20,14.5,20.5,14.4,21z M12,24.5l-2.5-3.4c0.2-0.2,0.3-0.4,0.4-0.6l4.2,1.2c-0.3,0.8-0.8,1.6-1.5,2.2
							C12.5,24.1,12.2,24.3,12,24.5z M8.4,21.6c0.2,0,0.4-0.1,0.6-0.2l2.5,3.4c-0.9,0.5-1.9,0.8-3,0.9L8.4,21.6z M8,21
							c-0.8,0-1.4-0.6-1.5-1.4c0-0.8,0.6-1.4,1.4-1.5c0.8,0,1.5,0.6,1.5,1.4C9.5,20.3,8.8,20.9,8,21z M4.7,24.9l2.4-3.4
							c0.2,0.1,0.4,0.1,0.6,0.2l0.1,4.1C6.6,25.7,5.6,25.4,4.7,24.9z M2,21.8l4.1-1.3c0.1,0.2,0.3,0.4,0.4,0.6l-2.3,3.4
							C4,24.3,3.8,24.2,3.6,24C2.9,23.4,2.3,22.6,2,21.8z M1.8,21.2c-0.1-0.5-0.2-1-0.2-1.5s0.1-1,0.2-1.5l4.1,1.1
							c0,0.1,0,0.1,0,0.2s0,0.2,0,0.3L1.8,21.2z"/>
					</g>
					<g>
						<path class="st1" d="M8,18.7c0.5,0,0.9,0.4,0.9,0.8c0,0.5-0.4,0.9-0.8,0.9c-0.5,0-0.9-0.4-0.9-0.9C7.2,19.1,7.5,18.7,8,18.7z"
							/>
					</g>
				</g>
				<g>
					<g>
						<path class="st5" d="M8,27.3c-2.1,0-4.1-0.8-5.6-2.2C0.9,23.7,0,21.8,0,19.7s0.8-4,2.3-5.5s3.5-2.3,5.7-2.3h0.1
							c1.1,0,2.1,0.2,3.1,0.6c0.1,0,0.9,0.4,1.5,0.8c0.4,0.2,0.7,0.5,1,0.8c1.5,1.4,2.4,3.3,2.4,5.4s-0.8,4-2.3,5.5
							C12.3,26.5,10.3,27.3,8,27.3L8,27.3z M8.1,12.9L8.1,12.9c-2,0-3.8,0.7-5.1,2s-2,3-2,4.8c0,1.8,0.8,3.5,2.1,4.7
							s3.1,1.9,4.9,1.9h0.1c1.9,0,3.7-0.7,5-2s2-3,2-4.8S14.3,16,13,14.8c-0.3-0.2-0.5-0.5-0.9-0.7c-0.5-0.3-1.3-0.7-1.3-0.7
							C9.9,13.1,9,12.9,8.1,12.9z"/>
					</g>
					<g>
						<path class="st1" d="M8,18.7c0.5,0,0.9,0.4,0.9,0.8c0,0.5-0.4,0.9-0.8,0.9c-0.5,0-0.9-0.4-0.9-0.9C7.2,19.1,7.5,18.7,8,18.7z"
							/>
					</g>
				</g>
			</g>
			<g>
				<g>
					<g>
						<path class="st4" d="M29,19c0,2.2,1,4.3,2.6,5.7c1.6,1.5,3.7,2.3,6.1,2.3c2.4,0,4.5-1,6-2.5s2.5-3.5,2.4-5.8
							c0-2.2-1-4.3-2.6-5.7c-0.3-0.3-0.7-0.6-1-0.8c-0.7-0.4-1.6-0.9-1.6-0.9c-1-0.4-2.2-0.6-3.4-0.6c-2.4,0-4.5,1-6,2.5
							C29.9,14.8,28.9,16.8,29,19z M33,13.5l2.7,3.7c-0.2,0.2-0.4,0.5-0.5,0.7l-4.6-1.3c0.4-1,0.9-1.9,1.7-2.6
							C32.5,13.9,32.7,13.7,33,13.5z M37,16.5c-0.3,0-0.5,0.1-0.7,0.3l-2.7-3.7c1-0.6,2.1-1,3.4-1.1V16.5z M40.9,12.7
							c0.1,0,0.2,0.1,0.3,0.2l-2.6,3.8c-0.2-0.1-0.5-0.2-0.8-0.2L37.7,12c1,0,2,0.2,2.8,0.6l0,0C40.7,12.6,40.8,12.7,40.9,12.7
							L40.9,12.7z M44.4,16.4l-4.7,1.4c-0.1-0.3-0.3-0.5-0.5-0.7l2.7-3.8c0.1,0,0.1,0.1,0.2,0.1c0.2,0.2,0.4,0.3,0.6,0.5
							C43.4,14.6,44,15.5,44.4,16.4z M44.7,20.5l-4.8-1.3c0-0.1,0-0.3,0-0.4s0-0.2,0-0.2l4.7-1.5c0.1,0.5,0.2,1.1,0.3,1.7
							C44.9,19.4,44.8,20,44.7,20.5z M42,24.4l-2.8-3.9c0.2-0.2,0.4-0.4,0.5-0.7l4.8,1.3c-0.4,1-0.9,1.8-1.7,2.5
							C42.5,24,42.3,24.2,42,24.4z M37.9,21.2c0.2,0,0.5-0.1,0.7-0.2l2.8,3.8c-1,0.6-2.2,1-3.4,1L37.9,21.2z M37.5,20.4
							c-0.9,0-1.6-0.7-1.7-1.6c0-0.9,0.7-1.6,1.6-1.7c0.9,0,1.6,0.7,1.7,1.6C39.1,19.7,38.4,20.4,37.5,20.4z M33.8,24.9l2.7-3.9
							c0.2,0.1,0.4,0.2,0.7,0.2l0.1,4.7C35.9,25.8,34.8,25.5,33.8,24.9z M30.7,21.4l4.7-1.4c0.1,0.2,0.3,0.5,0.5,0.6l-2.8,3.9
							c-0.2-0.2-0.5-0.4-0.7-0.6C31.7,23.2,31.1,22.4,30.7,21.4z M30.4,20.7c-0.1-0.5-0.2-1.1-0.2-1.7s0.1-1.1,0.2-1.7l4.7,1.3
							c0,0.1,0,0.1,0,0.2s0,0.3,0,0.4L30.4,20.7z"/>
					</g>
					<g>
						<path class="st1" d="M37.5,17.9c0.5,0,1,0.4,1,0.9s-0.4,1-0.9,1s-1-0.4-1-1C36.5,18.3,36.9,17.9,37.5,17.9z"/>
					</g>
				</g>
				<g>
					<g>
						<path class="st5" d="M37.5,27.6c-2.4,0-4.6-0.9-6.3-2.4c-1.8-1.6-2.7-3.8-2.8-6.1c0-2.3,0.9-4.5,2.6-6.2s4-2.6,6.4-2.6h0.1
							c1.2,0,2.4,0.2,3.5,0.7c0.1,0,1.1,0.5,1.7,0.9c0.4,0.3,0.8,0.6,1.1,0.9c1.7,1.6,2.7,3.8,2.8,6.1c0,2.3-0.9,4.5-2.6,6.2
							C42.3,26.8,40,27.7,37.5,27.6L37.5,27.6L37.5,27.6z M37.5,11.4L37.5,11.4c-2.2,0-4.2,0.8-5.7,2.3c-1.5,1.4-2.3,3.4-2.3,5.4
							s0.9,3.9,2.4,5.3c1.5,1.4,3.5,2.2,5.6,2.2h0.1c2.1,0,4.1-0.9,5.6-2.3c1.5-1.4,2.3-3.4,2.3-5.4s-0.9-3.9-2.4-5.3
							c-0.3-0.3-0.6-0.5-1-0.8c-0.6-0.4-1.4-0.8-1.5-0.8C39.7,11.6,38.6,11.4,37.5,11.4z"/>
					</g>
					<g>
						<path class="st1" d="M37.5,17.9c0.5,0,1,0.4,1,0.9s-0.4,1-0.9,1s-1-0.4-1-1C36.5,18.3,36.9,17.9,37.5,17.9z"/>
					</g>
				</g>
			</g>
			<polyline class="st0" points="37.5,11.7 37.5,12.8 37.8,12.8 37.8,11.7 37.6,11.7 			"/>
			<polyline class="st6" points="38.3,12.2 38.3,12.2 38.3,12.2 38.3,12.2 			"/>
			<polyline class="st6" points="36.3,12.8 36.3,12.8 36.3,12.8 			"/>
			<path class="st3" d="M33.8,16.9c0.4,0,1.3-0.1,2.3-0.5l0,0c0.6-0.3,1.3-0.8,2-1.6c0,0,0.2-0.3,0.5-0.7c0.8-1.1,1.7-1.6,2.5-1.7
				c0,0,1.4-0.4,3.5,1c0.2,0.1,0.4,0.1,0.6,0.1c0.3,0,0.5-0.1,0.8-0.1c-0.3-0.4-0.6-0.7-0.9-1.1c0-0.4-0.1-1.8-0.1-1.8
				c0-0.1-0.1-0.1-0.1-0.1l-2.2,0.1c-1.4-0.8-3.1-1.2-4.9-1.2c-2.1,0-4,0.6-5.6,1.6l0,0c-0.9,0.7-1.4,1.1-1.7,1.4
				c-0.6,0.6-1.1,1.2-1.5,2c-0.4,0.8-0.8,1.6-1,2.5h5.7C33.7,16.9,33.7,16.9,33.8,16.9z M38.3,12.2L38.3,12.2L38.3,12.2L38.3,12.2z"
				/>
			<path class="st7" d="M29.3,23.6h-0.8L27,21.1c0.4-0.3,0.7-0.8,0.8-1.3l1.4-0.1l0,0l1.2-0.1l7.7-0.3c0.2,0,0.3-0.1,0.4-0.3
				c0.1-0.2,0-0.3-0.1-0.5l-1.2-1l0,0L31,11.7l0,0l-1.3-1.2l0.2-0.5l0.3,0.1h0.1c0.1,0,0.3-0.1,0.3-0.2c0.1-0.2,0-0.3-0.2-0.4
				l-0.5-0.2l-0.6-0.2l-0.5-0.2h-0.1c-0.1,0-0.2,0.1-0.3,0.2c-0.1,0.2,0,0.3,0.2,0.4L29,9.6l-3.2,7.7c-0.1,0-0.2,0-0.3,0
				c-0.2,0-0.5,0-0.7,0.1l-1.2-2.1h0.3c0.3,0,0.5-0.2,0.5-0.4c0-0.2-0.2-0.4-0.5-0.4h-2.2c-0.3,0-0.5,0.2-0.5,0.4
				c0,0.2,0.2,0.4,0.5,0.4h0.9l1.5,2.5c-0.3,0.2-0.5,0.5-0.6,0.8c-0.4-0.1-0.7-0.1-1.1-0.2c-0.3-0.1-0.6-0.2-1-0.4
				c-0.5-0.3-0.9-0.6-1.3-1.1c-0.4-0.5-0.7-1.1-0.9-2c-0.3-1.1-0.8-2.1-1.3-3c-0.8-1.3-1.7-2.3-2.4-3c-0.3-0.3-0.6-0.6-0.8-0.8
				l0.4-1c0-0.1,0-0.1,0-0.2c0-0.1-0.1-0.1-0.1-0.1l-0.2-0.1c-0.2-0.1-0.2-0.1-0.6-0.2h-0.3h-0.1c-0.1,0-0.2,0.1-0.2,0.1l-1.1,3
				c0,0.1,0,0.1,0,0.2s0.1,0.1,0.1,0.1h0.1c-0.2,0.6-0.5,1.2-0.7,1.9l0,0l-0.2,0.6l0,0c0,0.1-0.1,0.2-0.1,0.4l0,0l-0.5,0.5l0,0
				c0,0.1-0.1,0.1-0.1,0.2l0,0L11,13.8l0,0c-0.1,0.3-0.2,0.5-0.3,0.7c-0.5,1.2-1.3,2.4-2,3.2c-0.3,0.4-0.6,0.8-0.8,1
				c-0.1,0.1-0.2,0.2-0.3,0.3l-0.1,0.1l0,0l0,0l0,0c-0.2,0.2-0.2,0.5,0,0.6c0.1,0.1,0.2,0.1,0.3,0.1s0.2,0,0.3-0.1
				c0,0,0.6-0.6,1.3-1.4c0.7-0.9,1.5-2.1,2.1-3.4c0.1-0.2,0.2-0.4,0.3-0.6l0.9-2.1c0.2-0.5,0.4-1.1,0.6-1.6c0.1-0.1,0.1-0.3,0.2-0.4
				h0.1h0.1c0.1,0,0.2-0.1,0.2-0.1l0.2-0.5c0.3,0.3,0.6,0.6,1,1c0.5,0.5,1,1.2,1.4,2c0.5,0.8,0.9,1.6,1.1,2.6
				c0.3,1.2,0.8,2.1,1.5,2.8c0.5,0.5,1,0.9,1.6,1.2c0.8,0.5,1.7,0.7,2.5,0.8h0.1c0.3,0.9,1.2,1.6,2.2,1.6c0.2,0,0.5,0,0.7-0.1
				l1.2,2.1h-0.2c-0.3,0-0.5,0.2-0.5,0.4c0,0.2,0.2,0.4,0.5,0.4h2.2c0.3,0,0.5-0.2,0.5-0.4C29.8,23.8,29.6,23.6,29.3,23.6z
				 M29.4,11.3l0.8,0.8l4.9,4.7l0,0l1.9,1.8l-6.6,0.3H30l0,0h-0.1L27.8,19c-0.1-0.6-0.5-1.1-1-1.4L29.4,11.3z"/>
			<g>
				<path class="st8" d="M34.2,12.4L34.2,12.4C34.2,12.4,34.3,12.4,34.2,12.4C34.2,12.3,34.2,12.3,34.2,12.4
					c0.1-0.1,0.1-0.1,0.1-0.1l0.1-0.1c0.1-0.1,0.1-0.2,0.1-0.3c-0.1-0.1-0.3,0-0.4,0.1C34,12.1,34,12.1,34,12.2S34.1,12.4,34.2,12.4
					C34.1,12.4,34.1,12.4,34.2,12.4z M34.2,12.1L34.2,12.1L34.2,12.1C34.2,12.2,34.2,12.2,34.2,12.1C34.2,12.2,34.2,12.2,34.2,12.1
					c-0.1,0.1-0.1,0.1-0.1,0.1S34.1,12.2,34.2,12.1L34.2,12.1L34.2,12.1z M34.2,12L34.2,12L34.2,12L34.2,12L34.2,12z M34.4,12
					C34.4,12,34.3,12,34.4,12C34.3,12,34.3,12,34.4,12C34.3,12,34.3,12,34.4,12C34.3,12,34.4,12,34.4,12z M33.9,12.2
					c0-0.1,0.1-0.1,0.1-0.1S34,12.1,33.9,12.2C34,12.2,34,12.2,33.9,12.2c0.1,0.1,0.1,0.1,0.2,0.2c0,0,0,0-0.1,0
					C34,12.3,33.9,12.3,33.9,12.2z"/>
				<path class="st8" d="M36.2,11.6c0.1-0.1,0.1-0.2,0.1-0.3c-0.1-0.1-0.3,0-0.4,0.1c-0.1,0.1-0.1,0.1-0.1,0.2s0.1,0.2,0.2,0.2h0.1
					l0,0c0,0,0.1,0,0-0.1l0,0C36,11.7,36.1,11.7,36.2,11.6C36.1,11.6,36.1,11.6,36.2,11.6z M36,11.5L36,11.5L36,11.5L36,11.5
					C36,11.6,36,11.6,36,11.5c-0.1,0.1-0.1,0.1-0.1,0.1S35.9,11.5,36,11.5L36,11.5L36,11.5z M36,11.4L36,11.4L36,11.4L36,11.4
					L36,11.4z M36.2,11.4C36.2,11.4,36.1,11.4,36.2,11.4C36.1,11.3,36.1,11.3,36.2,11.4C36.1,11.3,36.1,11.3,36.2,11.4
					C36.1,11.3,36.2,11.3,36.2,11.4z M35.8,11.7c-0.1,0-0.1-0.1-0.1-0.2s0.1-0.1,0.1-0.1v0.1c0,0,0,0,0,0.1V11.7
					C35.9,11.7,35.8,11.7,35.8,11.7z"/>
				<path class="st8" d="M37.3,11.7C37.3,11.6,37.3,11.6,37.3,11.7C37.2,11.6,37.2,11.6,37.3,11.7L37.3,11.7L37.3,11.7
					C37.2,11.6,37.2,11.6,37.3,11.7c-0.1,0-0.1,0-0.2,0l0,0l0,0c0,0,0,0.1,0.1,0.1l0,0l0,0l0,0l0,0l0,0l0,0l0,0l0,0c0,0,0,0,0-0.1
					l0,0C37.3,11.8,37.3,11.7,37.3,11.7L37.3,11.7L37.3,11.7z"/>
				<path class="st8" d="M38.5,12.1L38.5,12.1c-0.3,0-0.4-0.1-0.6-0.2c0-0.1,0.1-0.2,0.2-0.3v-0.1H38c-0.1,0.1-0.1,0.3-0.2,0.4v-0.1
					v-0.1l0,0c0,0,0,0-0.1,0c0,0-0.1,0-0.1,0.1v0.1c0,0.2-0.1,0.4,0,0.6c0,0,0,0.1,0.1,0.1c0,0,0.1,0,0.1-0.1s0.1-0.2,0.1-0.3
					c0.2,0.1,0.4,0.1,0.6,0.2h0.1C38.6,12.2,38.6,12.2,38.5,12.1C38.6,12.1,38.6,12.1,38.5,12.1z"/>
				<path class="st8" d="M37.2,12L37.2,12c0,0.2,0,0.3,0,0.4s0,0.1,0,0.2c0,0,0,0.1,0.1,0.1c0,0,0.1,0,0.1-0.1s0-0.1,0-0.2
					s0-0.2-0.1-0.3C37.3,12,37.3,11.9,37.2,12z"/>
				<path class="st8" d="M39.3,11.7L39.3,11.7c-0.2,0.1-0.4,0.2-0.6,0.2h-0.1c0.1-0.1,0.2-0.2,0.2-0.3l0,0l0,0c0,0,0,0,0-0.1
					s-0.1-0.1-0.1-0.1c-0.1,0-0.2,0.1-0.3,0.1c-0.1,0.1-0.1,0.2-0.1,0.3c0,0,0,0,0,0.1l0,0c0,0,0,0,0.1,0s0.1,0.1,0.2,0.1
					c0.2,0,0.5-0.1,0.6-0.2C39.3,11.8,39.3,11.7,39.3,11.7z M38.6,11.6L38.6,11.6C38.6,11.5,38.6,11.5,38.6,11.6
					C38.7,11.5,38.6,11.6,38.6,11.6L38.6,11.6z"/>
				<path class="st8" d="M37,12.2c-0.1-0.1-0.2,0-0.3,0c0-0.1,0-0.2,0-0.3c0,0,0-0.1-0.1-0.1c0,0-0.1,0-0.1,0.1c0,0.2,0,0.3,0,0.4
					v0.1l0,0c0,0.1,0,0.2,0,0.3l0,0v0.1l0,0h0.1c0.1-0.1,0.2-0.2,0.3-0.3l0,0l0,0C37.1,12.5,37.1,12.4,37,12.2
					C37.1,12.2,37.1,12.2,37,12.2L37,12.2z M36.9,12.4L36.9,12.4c0,0.1-0.1,0.1-0.2,0.2c0-0.1,0-0.2,0-0.2c0.2-0.1,0.2-0.1,0.2-0.1
					l0,0V12.4z"/>
				<path class="st8" d="M36,12.1L36,12.1C36,12.1,35.9,12.2,36,12.1c-0.1,0.1-0.1,0.1-0.1,0.1c0.1,0.3-0.1,0.6-0.3,0.8
					c-0.2,0.2-0.6,0.3-0.9,0.2c-0.2-0.1-0.4-0.3-0.4-0.5c0-0.1-0.1,0-0.1,0s0,0,0,0.1c0,0,0,0,0,0.1c0.1,0.3,0.3,0.5,0.6,0.6
					c0.3,0,0.7-0.1,0.9-0.2c0.3-0.2,0.5-0.6,0.4-1l0,0C36.1,12.1,36,12.1,36,12.1z"/>
			</g>
			<g>
				<g>
					<path class="st1" d="M13.4,3.9c0,0-1.3-0.8-2.8-0.9l0,0c-0.5,0-1,0-1.4-0.1c-0.4,0-0.6,0-0.8-0.1c-0.2,0-0.3,0-0.3,0l0,0H7.9
						c0,0-0.1,0-0.1,0.1l1,4.6c0,0,0,0.1,0.1,0.1l3.2,0.2c0,0,0.1,0,0.1-0.1L13.4,3.9L13.4,3.9z"/>
				</g>
				<g>
					<g>
						<polygon class="st3" points="8.2,7.9 8.1,9.1 8.3,9.2 8.5,7.8 						"/>
					</g>
					<g>
						<g>
							<path class="st1" d="M11,9.2l0.1-0.4c0-0.1,0-0.1-0.1-0.1s-0.1,0-0.1,0.1l-0.1,0.4c0,0.1,0,0.1,0.1,0.1S11,9.3,11,9.2z"/>
						</g>
						<g>
							<path class="st1" d="M10.8,9.7c-0.4,0-0.8-0.1-1.1-0.2C9.2,9.4,9.3,9.2,9.4,8.8c0.1-0.2,0.1-0.5,0.2-0.7
								c0-0.1,0.2-0.2,0.2-0.2l1.4,0.4c0.4,0.1,0.6,0.5,0.5,0.9C11.6,9.6,11.2,9.7,10.8,9.7z M11.1,8.6c-0.2-0.1-0.5,0.1-0.5,0.3
								c-0.1,0.2,0.1,0.5,0.3,0.5c0.2,0.1,0.5-0.1,0.5-0.3C11.5,8.9,11.3,8.7,11.1,8.6z"/>
						</g>
					</g>
					<g>
						<polygon class="st1" points="8.4,9.2 9,9.2 9.1,8 8.6,7.8 						"/>
					</g>
				</g>
			</g>
		</g>
		<g>
			<g>
				<g>
					<path class="st1" d="M29,5l0.4,0.6c0.2,0.3,0.5,0.6,0.8,0.6h-0.1h0.3l-1.2,3l0.9,0.2l1.2-3.2h0.8c0,0.1,0.1,0.1,0.1,0.1l0,0
						c0.1,0.1,0.3,0.2,0.5,0.2s0.4-0.1,0.5-0.2c0.1,0,0.1-0.1,0.1-0.1c0.1-0.2,0.1-0.4,0.1-0.6l0,0c0-0.1-0.1-0.2-0.2-0.2h-1.3
						c-0.1,0-0.1,0.2-0.1,0.3h-0.4c0,0,0-0.1-0.1-0.1l-0.1-0.1c-0.1,0-0.2,0-0.3,0c-0.2,0-0.4,0-0.4,0.2v0.1c-0.1,0-0.1,0-0.2,0
						c-0.1,0-0.1,0-0.2,0c-0.3,0-0.4-0.2-0.6-0.4l-0.2-0.3L29,5z"/>
				</g>
			</g>
			<g>
				<path class="st9" d="M30.9,9.9c-0.1,0.2-0.3,0.4-0.5,0.3l-1.9-0.8c-0.2-0.1-0.2-0.3-0.2-0.5l0,0c0.1-0.2,0.2-0.4,0.5-0.3
					l1.9,0.8C31,9.4,31,9.7,30.9,9.9L30.9,9.9z"/>
			</g>
			<path class="st1" d="M30,7l0.3-0.9l0,0l0,0l0.2-0.4l0,0c0.1-0.3,0.5-0.5,0.8-0.3c0.3,0.1,0.4,0.4,0.3,0.8l0,0l0,0c0,0,0,0,0,0.1
				l-0.2,0.2l-0.4,1L30,7z"/>
			<g>
				<g>
					<path id="SVGID_1_" class="st10" d="M27.6,3.6h1.2c0.4,0,0.7,0,1,0l0,0c0.6,0,1.9-0.4,1.9-0.4c1.1-0.3,2,0,2,0
						c0.9,0.3,0.9,1.2,0.9,1.2l0,0c0,0.3-0.1,0.5-0.4,0.7c-0.1,0-0.1,0.1-0.2,0.1l0,0l0,0h-0.1l-6.3-0.1c-0.3,0-0.5-0.3-0.5-0.7V4.2
						C27.1,3.9,27.3,3.6,27.6,3.6z"/>
				</g>
				<g>
					<g>
						<defs>
							<path id="SVGID_2_" d="M27.6,3.6h1.2c0.4,0,0.7,0,1,0l0,0c0.6,0,1.9-0.4,1.9-0.4c1.1-0.3,2,0,2,0c0.9,0.3,0.9,1.2,0.9,1.2
								l0,0c0,0.3-0.1,0.5-0.4,0.7c-0.1,0-0.1,0.1-0.2,0.1l0,0l0,0h-0.1l-6.3-0.1c-0.3,0-0.5-0.3-0.5-0.7V4.2
								C27.1,3.9,27.3,3.6,27.6,3.6z"/>
						</defs>
						<clipPath id="SVGID_3_">
							<use xlink:href="#SVGID_2_"  style="overflow:visible;"/>
						</clipPath>
						<g class="st11">
							<path class="st3" d="M28.8,4.3c1.5,0,2.5-0.3,2.5-0.3c2.1-0.6,3.2,0,3.3,0l0.1-0.1c0,0-1.2-0.6-3.3,0c0,0-1.9,0.5-4.2,0.1
								v0.1C27.7,4.2,28.3,4.3,28.8,4.3z"/>
						</g>
					</g>
				</g>
			</g>
		</g>
		<g>
			<g>
				<g>
					<path class="st7" d="M28.1,24c0.2-0.1,0.3-0.5,0.2-0.7l-2.5-4.1c-0.1-0.2-0.5-0.3-0.7-0.2c-0.2,0.1-0.3,0.5-0.2,0.7l2.5,4.1
						C27.5,24.1,27.8,24.2,28.1,24z"/>
					<path class="st7" d="M27.3,23.9l-2.5-4.1c-0.1-0.1-0.1-0.3-0.1-0.4c0-0.2,0.1-0.3,0.3-0.4c0.1-0.1,0.2-0.1,0.3-0.1
						c0.2,0,0.4,0.1,0.5,0.3l2.5,4.1c0.1,0.1,0.1,0.3,0.1,0.4c0,0.2-0.1,0.3-0.3,0.4c-0.1,0.1-0.2,0.1-0.3,0.1
						C27.6,24.2,27.4,24.1,27.3,23.9z M25,19.1c-0.1,0.1-0.2,0.2-0.2,0.3c0,0.1,0,0.2,0.1,0.3l2.5,4.1c0.1,0.2,0.4,0.3,0.6,0.1
						c0.1-0.1,0.2-0.2,0.2-0.3c0-0.1,0-0.2-0.1-0.3l-2.5-4.1c-0.1-0.1-0.2-0.2-0.4-0.2C25.2,19.1,25.1,19.1,25,19.1z"/>
				</g>
			</g>
			<g>
				<g>
					<path class="st5" d="M30,24.1c0,0.3-0.3,0.6-0.6,0.6h-2.5c-0.3,0-0.6-0.3-0.6-0.6c0-0.3,0.3-0.6,0.6-0.6h2.5
						C29.7,23.5,30,23.8,30,24.1z"/>
				</g>
			</g>
		</g>
		<g>
			<path class="st5" d="M24.5,14.8c0,0.3-0.3,0.5-0.6,0.5h-2.3c-0.3,0-0.6-0.2-0.6-0.5s0.3-0.5,0.6-0.5h2.3
				C24.2,14.3,24.5,14.5,24.5,14.8z"/>
		</g>
	</g>
	<g>
		<g>
			<polyline class="st12" points="16.4,11.6 16.4,11.6 16.4,11.6 16.4,11.6 			"/>
		</g>
		<g>
			<path class="st12" d="M16.1,10.3L16.1,10.3C16.1,10.4,16.2,10.4,16.1,10.3C16.2,10.4,16.2,10.4,16.1,10.3
				C16.2,10.4,16.2,10.4,16.1,10.3c0.1,0,0.1,0.1,0.1,0.1h0.1c0-0.1,0-0.1-0.1-0.2c0,0-0.1-0.1-0.1,0C16.1,10.2,16.1,10.2,16.1,10.3
				L16.1,10.3 M16.3,10.3L16.3,10.3L16.3,10.3C16.2,10.3,16.2,10.3,16.3,10.3C16.2,10.3,16.2,10.3,16.3,10.3
				C16.2,10.3,16.2,10.3,16.3,10.3C16.2,10.3,16.2,10.3,16.3,10.3L16.3,10.3L16.3,10.3 M16.3,10.3L16.3,10.3L16.3,10.3L16.3,10.3
				L16.3,10.3 M16.3,10.4L16.3,10.4L16.3,10.4C16.3,10.3,16.3,10.3,16.3,10.4L16.3,10.4 M16.2,10.2C16.2,10.2,16.3,10.2,16.2,10.2
				C16.3,10.2,16.2,10.2,16.2,10.2L16.2,10.2C16.2,10.3,16.2,10.3,16.2,10.2C16.1,10.3,16.1,10.3,16.2,10.2
				C16.1,10.2,16.2,10.2,16.2,10.2"/>
		</g>
		<g>
			<path class="st12" d="M16.7,11.1L16.7,11.1c0.1-0.1,0.1-0.1,0-0.2c0,0-0.1-0.1-0.1,0c0,0-0.1,0-0.1,0.1c0,0,0,0,0,0.1l0,0
				C16.6,11.1,16.6,11.1,16.7,11.1C16.6,11.1,16.6,11.1,16.7,11.1C16.6,11.1,16.6,11.1,16.7,11.1L16.7,11.1 M16.7,11.1L16.7,11.1
				L16.7,11.1L16.7,11.1L16.7,11.1C16.7,11,16.7,11,16.7,11.1C16.7,11,16.7,11,16.7,11.1C16.7,11,16.7,11,16.7,11.1L16.7,11.1
				 M16.8,11L16.8,11L16.8,11L16.8,11L16.8,11 M16.8,11.1L16.8,11.1L16.8,11.1L16.8,11.1L16.8,11.1 M16.6,11
				C16.6,11,16.6,10.9,16.6,11c0.1-0.1,0.1,0,0.1,0S16.7,11,16.6,11C16.7,11,16.7,11,16.6,11L16.6,11L16.6,11"/>
		</g>
		<g>
			<path class="st12" d="M16.8,11.6L16.8,11.6L16.8,11.6L16.8,11.6L16.8,11.6L16.8,11.6L16.8,11.6L16.8,11.6
				C16.7,11.5,16.7,11.5,16.8,11.6C16.7,11.6,16.7,11.6,16.8,11.6C16.7,11.6,16.7,11.6,16.8,11.6L16.8,11.6L16.8,11.6
				C16.7,11.6,16.7,11.6,16.8,11.6C16.7,11.6,16.7,11.6,16.8,11.6L16.8,11.6C16.7,11.6,16.7,11.6,16.8,11.6
				C16.7,11.6,16.7,11.6,16.8,11.6C16.7,11.7,16.7,11.7,16.8,11.6C16.7,11.7,16.7,11.7,16.8,11.6C16.7,11.7,16.8,11.7,16.8,11.6
				C16.8,11.7,16.8,11.7,16.8,11.6L16.8,11.6"/>
		</g>
		<g>
			<path class="st12" d="M16.7,12.2L16.7,12.2c0-0.1,0-0.2,0-0.3h0.1l0,0l0,0c-0.1,0-0.1,0-0.2,0l0,0c0,0,0,0,0.1,0l0,0l0,0l0,0
				c0,0,0,0-0.1,0c-0.1,0-0.2,0-0.2,0.1l0,0l0,0h0.1C16.6,12,16.6,12.1,16.7,12.2L16.7,12.2C16.7,12.3,16.7,12.3,16.7,12.2
				C16.7,12.3,16.7,12.2,16.7,12.2"/>
		</g>
		<g>
			<path class="st12" d="M16.6,11.6L16.6,11.6c-0.1,0-0.1,0-0.2,0c0,0,0,0-0.1,0l0,0l0,0c0,0,0,0,0.1,0
				C16.6,11.7,16.6,11.7,16.6,11.6C16.7,11.7,16.7,11.7,16.6,11.6"/>
		</g>
		<g>
			<polyline class="st12" points="17,12.1 17,12.1 17,12.1 17,12.1 			"/>
		</g>
		<g>
			<path class="st12" d="M17,12.5L17,12.5c-0.1-0.1-0.1-0.2-0.1-0.3l0,0c0.1,0,0.1,0.1,0.2,0.1l0,0l0,0l0,0l0,0L17,12.2h-0.1l0,0
				l0,0l0,0v0.1C16.8,12.4,16.9,12.5,17,12.5C16.9,12.6,17,12.6,17,12.5 M17,12.2L17,12.2L17,12.2L17,12.2
				C16.9,12.2,16.9,12.2,17,12.2"/>
		</g>
		<g>
			<path class="st12" d="M16.5,11.6v-0.1h0.1l0,0l0,0c-0.1,0-0.1,0-0.2,0l0,0l0,0h-0.1l0,0l0,0l0,0c0,0,0,0,0,0.1
				c0,0,0.1,0.1,0.2,0.1l0,0l0,0C16.4,11.6,16.5,11.6,16.5,11.6L16.5,11.6L16.5,11.6 M16.4,11.5L16.4,11.5c0,0-0.1,0-0.1-0.1
				C16.3,11.5,16.4,11.5,16.4,11.5C16.5,11.5,16.5,11.5,16.4,11.5L16.4,11.5L16.4,11.5"/>
		</g>
		<g>
			<polyline class="st12" points="16.4,11.6 16.4,11.6 16.4,11.6 16.4,11.6 			"/>
		</g>
		<g>
			<path class="st12" d="M16.5,11.1L16.5,11.1C16.4,11.1,16.4,11.1,16.5,11.1C16.4,11.1,16.4,11.1,16.5,11.1c-0.2,0-0.3,0-0.5-0.1
				c-0.1-0.1-0.2-0.2-0.2-0.4c0-0.1,0.1-0.2,0.2-0.2c0,0,0,0,0-0.1l0,0l0,0c-0.1,0.1-0.2,0.2-0.2,0.3c0,0.1,0.1,0.3,0.2,0.4
				C16.1,11.2,16.3,11.3,16.5,11.1L16.5,11.1C16.5,11.2,16.5,11.1,16.5,11.1"/>
		</g>
	</g>
</g>
</svg>
